<mxfile host="app.diagrams.net" modified="2023-04-25T01:29:25.038Z" agent="Mozilla/5.0 (Windows NT 10.0; Win64; x64) AppleWebKit/537.36 (KHTML, like Gecko) Chrome/112.0.0.0 Safari/537.36" version="21.2.1" etag="-pIVVNLFhGftfDvKtCXo" type="github">
  <diagram name="PÃ¡gina-1" id="ylI8GhiUqBIUzAo3LSyl">
    <mxGraphModel>
      <root>
        <mxCell id="0" />
        <mxCell id="1" parent="0" />
      </root>
    </mxGraphModel>
  </diagram>
</mxfile>
